<?xml version="1.0" encoding="UTF-8"?>
<svg width="512" height="512" viewBox="0 0 512 512" fill="none" xmlns="http://www.w3.org/2000/svg">
  <defs>
    <linearGradient id="cloudGradient" x1="0%" y1="0%" x2="100%" y2="100%">
      <stop offset="0%" stop-color="#FF7F50" />
      <stop offset="100%" stop-color="#FFA500" />
    </linearGradient>
  </defs>
  <path d="M409.6 256c0-28.16-12.8-53.76-33.28-71.68 0.64-4.48 1.28-8.96 1.28-13.44 0-53.12-43.52-96.64-96.64-96.64-33.92 0-64 17.92-81.28 44.8-8.32-2.56-17.28-3.84-26.24-3.84-53.12 0-96.64 43.52-96.64 96.64 0 3.2 0 6.4 0.64 9.6-30.72 14.08-51.84 45.44-51.84 81.92 0 49.92 40.96 90.88 90.88 90.88h256c49.92 0 90.88-40.96 90.88-90.88 0-17.92-5.12-34.56-14.08-48.64-25.6-3.2-39.68-2.56-39.68 1.28z" fill="url(#cloudGradient)"/>
  <path d="M409.6 256c0-28.16-12.8-53.76-33.28-71.68 0.64-4.48 1.28-8.96 1.28-13.44 0-53.12-43.52-96.64-96.64-96.64-33.92 0-64 17.92-81.28 44.8-8.32-2.56-17.28-3.84-26.24-3.84-53.12 0-96.64 43.52-96.64 96.64 0 3.2 0 6.4 0.64 9.6-30.72 14.08-51.84 45.44-51.84 81.92 0 49.92 40.96 90.88 90.88 90.88h256c49.92 0 90.88-40.96 90.88-90.88 0-17.92-5.12-34.56-14.08-48.64-25.6-3.2-39.68-2.56-39.68 1.28z" fill="url(#cloudGradient)" filter="drop-shadow(0px 4px 6px rgba(0, 0, 0, 0.25))"/>
</svg>
